inDegrees=no
num_controls=7
num_derivatives=13
num_iterations=105
num_multipliers=7
num_parameters=0
num_slacks=7
num_states=26
objective=0.440054
objective_accelerations=0.056326
objective_balance=0.007079
objective_effort=0.038249
objective_height=0.334618
objective_ligament=0.003783
solver_duration=1520.583601
status=Solve_Succeeded
success=true
DataType=double
version=3
OpenSimVersion=4.5
endheader
time	/jointset/ground_pelvis/pelvis_tilt/value	/jointset/ground_pelvis/pelvis_tx/value	/jointset/ground_pelvis/pelvis_ty/value	/jointset/hip_l/hip_flexion_l/value	/jointset/hip_l/hip_adduction_l/value	/jointset/hip_l/hip_rotation_l/value	/jointset/back/lumbar_extension/value	/jointset/patellofemoral_l/patellar_flexion_l/value	/jointset/knee_l/knee_flexion_l/value	/jointset/knee_l/knee_adduction_l/value	/jointset/knee_l/knee_rotation_l/value	/jointset/ankle_l/ankle_angle_l/value	/jointset/subtalar_l/subtalar_angle_l/value	/jointset/ground_pelvis/pelvis_tilt/speed	/jointset/ground_pelvis/pelvis_tx/speed	/jointset/ground_pelvis/pelvis_ty/speed	/jointset/hip_l/hip_flexion_l/speed	/jointset/hip_l/hip_adduction_l/speed	/jointset/hip_l/hip_rotation_l/speed	/jointset/back/lumbar_extension/speed	/jointset/patellofemoral_l/patellar_flexion_l/speed	/jointset/knee_l/knee_flexion_l/speed	/jointset/knee_l/knee_adduction_l/speed	/jointset/knee_l/knee_rotation_l/speed	/jointset/ankle_l/ankle_angle_l/speed	/jointset/subtalar_l/subtalar_angle_l/speed	/forceset/tau_hip_flexion_l	/forceset/tau_hip_adduction_l	/forceset/tau_hip_rotation_l	/forceset/tau_knee_flexion_l	/forceset/tau_ankle_angle_l	/forceset/tau_subtalar_angle_l	/forceset/tau_lumbar_extension	lambda_cid13_p0	lambda_cid13_p1	lambda_cid13_p2	lambda_cid13_p3	lambda_cid13_p4	lambda_cid13_p5	lambda_cid14_p0	/jointset/ground_pelvis/pelvis_tilt/accel	/jointset/ground_pelvis/pelvis_tx/accel	/jointset/ground_pelvis/pelvis_ty/accel	/jointset/hip_l/hip_flexion_l/accel	/jointset/hip_l/hip_adduction_l/accel	/jointset/hip_l/hip_rotation_l/accel	/jointset/back/lumbar_extension/accel	/jointset/patellofemoral_l/patellar_flexion_l/accel	/jointset/knee_l/knee_flexion_l/accel	/jointset/knee_l/knee_adduction_l/accel	/jointset/knee_l/knee_rotation_l/accel	/jointset/ankle_l/ankle_angle_l/accel	/jointset/subtalar_l/subtalar_angle_l/accel	gamma_cid13_p0	gamma_cid13_p1	gamma_cid13_p2	gamma_cid13_p3	gamma_cid13_p4	gamma_cid13_p5	gamma_cid14_p0
0.5	-0.4358254068052789	-0.07307064559064347	0.7403276922358272	1.340587464333553	-0.3081389987415394	0.00224820437332414	-0.3400082703531081	0.8175356911032685	0.8175356911034674	-0.1720597884858424	0.1720810756261118	0.08885281572858546	-0.03849762950519798	-0.6917392527710681	-0.2455248082377784	-0.5958165178139473	2.574100646738909	0.007734633094097489	0.7300887203745978	-0.615614590330271	2.115228629614724	2.115228629613368	-0.01061485130702626	0.01734848464695271	0.3524727101348742	0.0540442886411425	-0.2429533982619736	0.01531568211886918	-0.02374706154592006	-0.2319069409110011	0.1395821875901496	0.03765290463746285	0.2213159010507662	6.380686002283655	-19.72460956945381	5.317680027580891	-7.014330313363591	-604.669005659573	-55.56332513084847	-20.55853406814511	0.7757058433599062	0.7976788708954757	-0.4219323184892578	-1.673715291929443	0.7696888315265064	-0.3170167181939648	1.93142286091086	-1.367160433576886	-1.367160433576855	0.03167846312771127	-0.0511038668575458	-0.4568852666119893	0.745182496012894	-4.292050643606419e-07	-7.776119051923857e-07	2.365219433119514e-06	2.228843599832843e-07	-5.204609709041845e-07	2.16994837622438e-07	-4.49464461980513e-07
0.51	-0.4427023357621402	-0.07548570368988175	0.7343497930624923	1.366240055020116	-0.3080248728678641	0.009533791329837869	-0.3460676886602679	0.838616074620142	0.8386160746203937	-0.1721679798900502	0.1722522477603942	0.09235348845933654	-0.03792182760124804	-0.6835490220916285	-0.2374657262071214	-0.5996298666637654	2.556055956470607	0.01506642545339854	0.7269356305126105	-0.5961811548600429	2.10054485930415	2.100544859304131	-0.01101753105377262	0.01688627275988988	0.3475908991359867	0.06109223626870686	-0.2515901683868987	0.01546152122776775	-0.02373135058513962	-0.2339666635080657	0.1390593211733985	0.03777074931134503	0.2281432224554489	5.892648237594115	-19.57885173747159	5.167097791345078	-6.853182497720778	-610.3645630631019	-55.17015821601834	-19.25693737147057	0.8552640387712935	0.8132291244829872	-0.3411182252142878	-1.924133006970102	0.7110679831812298	-0.328801294937031	1.962491326321457	-1.564380214529817	-1.564380214329386	-0.0754075209172141	-0.04421949635889896	-0.5144607968325995	0.6808686901037759	-3.983509398322919e-07	-6.856075356769527e-07	2.253787947730044e-06	2.145439437184747e-07	-4.792224109751318e-07	2.707315192341574e-07	-4.234968654042453e-07
0.52	-0.4494944459404995	-0.077819529717747	0.728337743989262	1.391701341381458	-0.3078382003615855	0.01678497815278434	-0.3519301351254767	0.8595405414569633	0.8595405414572809	-0.1722800313571942	0.1724187098464598	0.09580321672403773	-0.03727629266222734	-0.6747754970707781	-0.2292783939631725	-0.6026464977930273	2.535839781694724	0.02224395961467236	0.7232086936611865	-0.5762202219401097	2.084045293604289	2.084045293605607	-0.01138686389417499	0.01640647500369749	0.3422838169248805	0.06799089565529406	-0.2602269385118205	0.01560736033666698	-0.02371563962436774	-0.236026386105129	0.1385364547566474	0.03788859398522793	0.2349705438601348	5.398624173055416	-19.43462334029553	5.019705103322459	-6.697140547154507	-616.1693351301265	-54.86528801864223	-17.95529036105059	0.8923647116420877	0.8233289135538914	-0.2625887743779819	-2.108012193445769	0.7388371919210562	-0.4317861160813317	2.036922350851865	-1.730319511434085	-1.730319511434123	0.03834784439650657	-0.05462104068345258	-0.5419395090557081	0.7153248478174631	-3.68987710728273e-07	-5.920297276327107e-07	2.146071822754934e-06	2.091281659936323e-07	-4.41431712615401e-07	3.191575061990213e-07	-3.973904876781326e-07
0.53	-0.4561961019489477	-0.08007095513627502	0.7222995188147238	1.41695003302808	-0.3075803855768295	0.02399606805841011	-0.3575904709638859	0.8802912085254538	0.8802912085254407	-0.1723952371906819	0.1725801989237264	0.09919789048918497	-0.03656236237738683	-0.6654679032829662	-0.2209953958873493	-0.6048632061243742	2.513557503926428	0.02928936464214992	0.7189180788063072	-0.5557818507227494	2.065801308758827	2.065801308759152	-0.01164575486940034	0.01589134424361698	0.3365871178076545	0.07476551600643416	-0.268617572469745	0.01554878017995066	-0.02365439139453986	-0.2381434539684513	0.1380680698715907	0.03782325878530463	0.2415375938359181	4.922880414502118	-19.21102488513	4.856212474806279	-6.485906158632385	-621.8499815979211	-54.45757196157953	-16.65703773241288	0.9630889802498142	0.832520589582685	-0.1809965303838812	-2.339540269668993	0.6827155081350111	-0.4417175382930318	2.05705876002452	-1.914382935734845	-1.914382935883553	-0.05676264231277772	-0.05040138786593942	-0.5930946301681639	0.653925130828212	-3.391945736724875e-07	-4.977418349293603e-07	2.035238999758581e-06	2.033471207992608e-07	-4.039585100507569e-07	3.606984192984417e-07	-3.703329308340683e-07
0.54	-0.4628020555659375	-0.08223920350704755	0.7162431696232979	1.441965660956791	-0.3072530520718036	0.03116144814186679	-0.3630444702395521	0.9008508467525629	0.9008508467522095	-0.172512782948688	0.1727364482345534	0.1025336853597376	-0.03578160698862174	-0.6556350187791932	-0.2126429844120754	-0.6062713011705506	2.489227038112234	0.03614770366858343	0.7140667292273551	-0.5349529093915338	2.045839525328065	2.045839525327398	-0.01185484879785447	0.01535852171571311	0.3305080380059431	0.08135591644021151	-0.2770082064276667	0.01549020002323537	-0.02359314316471246	-0.2402605218317733	0.137599684986534	0.03775792358538246	0.248104643811704	4.44101825201012	-18.988379585537	4.695185576834279	-6.279871933158013	-627.6406457207693	-54.13017869580256	-15.36736334657516	0.9974228548342922	0.837211593444066	-0.1008661173438968	-2.517649802625232	0.7014239917122445	-0.5439330608959053	2.115036373622937	-2.07387922849396	-2.07387922849418	0.04830725375074643	-0.05815939424812057	-0.6184156459527929	0.6784808643449108	-3.089257937764495e-07	-4.026683166457196e-07	1.920957915121703e-06	1.97161949893921e-07	-3.668365794296133e-07	3.946218038658821e-07	-3.422230056041854e-07
0.55	-0.4693072506105997	-0.08432369068040996	0.7101767753002719	1.466728153030796	-0.3068579080210476	0.03827563289545292	-0.3682883944842746	0.9212025271937666	0.9212025271937758	-0.1726318392550923	0.1728870872262993	0.1058069220401338	-0.03493568802144947	-0.6453262682167966	-0.2042526156145374	-0.606871848821206	2.462950869236422	0.04284672665533395	0.7086903965736085	-0.5137924644871895	2.024224579167291	2.024224579167099	-0.01195279656900316	0.01476157933179119	0.3240825705719468	0.08779290525561717	-0.2850588883428445	0.01520351162765684	-0.02348408185749059	-0.2424330429354236	0.1371853087559568	0.03756007374024262	0.2543316461556162	3.984110078524277	-18.71012984195739	4.522525313263723	-6.022312577071165	-633.2150099528435	-53.74742458030652	-14.08989662638704	1.059228981493473	0.8402634774517668	-0.01936121455487146	-2.730715567603659	0.648762890230979	-0.5467376205054891	2.122469808703493	-2.246034493614542	-2.24603449354322	-0.03832350248545568	-0.06200916982369728	-0.6631038038599129	0.6208996335235754	-2.77072822334819e-07	-3.143599482274955e-07	1.796660339636475e-06	1.879475527279142e-07	-3.287429765298548e-07	4.195187895668852e-07	-3.13062240485228e-07
0.5600000000000001	-0.4757070325847275	-0.08632421137488833	0.7041084330756137	1.491218260388535	-0.306396849452809	0.04533360347192376	-0.3733195300279807	0.9413299117366135	0.9413299117369899	-0.1727517705811952	0.1730314472923339	0.1090142057438428	-0.03402648081744612	-0.6345524046723561	-0.195849688635271	-0.6066608814969988	2.434750094858835	0.04933060716506506	0.7028238938042041	-0.4923951691883133	2.000980345656698	2.000980345656981	-0.01202985273766277	0.01410273657349069	0.3173174426684758	0.09401356380643017	-0.2931095702580195	0.01491682323207985	-0.02337502055028088	-0.2446055640390723	0.1367709325253798	0.03736222389510457	0.2605586484995308	3.52098869805787	-18.43217289865566	4.351490055031373	-5.770984006866049	-638.9002417631285	-53.43620149905448	-12.82750356604797	1.090445451243075	0.8397232297897621	0.06143687762861627	-2.902570902980057	0.6583954963083601	-0.6419670840275039	2.16240645252936	-2.399736698457797	-2.399736698457967	0.05248557424855971	-0.07053946912383528	-0.6863477398476951	0.6352148114263751	-2.433188210384775e-07	-2.341697596477709e-07	1.660342975133227e-06	1.750980840491074e-07	-2.894833668957586e-07	4.335840966281638e-07	-2.826404674993815e-07
